# Blender 3.5.0
# www.blender.org
mtllib model_complex1.mtl
o Cube
v 0.786916 1.000000 -1.549832
v 1.000000 -1.000000 -1.582953
v 1.000000 1.000000 1.000000
v 1.624609 -1.000000 1.115610
v -1.000000 1.000000 -1.000000
v -1.000000 -1.000000 -1.000000
v -1.000000 1.000000 1.000000
v -1.000000 -1.000000 1.000000
v 1.000000 1.786085 1.000000
v -1.000000 1.786085 1.000000
v 1.000000 1.786085 -1.329321
v -1.000000 1.786085 -1.000000
v 0.675593 2.743905 0.675593
v -0.675593 2.743905 0.675593
v 0.675593 2.743905 -0.675593
v -0.675593 2.743905 -0.675593
v -1.000000 -1.000000 -1.000000
v -1.000000 -1.000000 1.000000
v -1.000000 1.000000 -1.000000
v -1.000000 1.000000 1.000000
v 1.000000 1.000000 1.000000
v -1.000000 1.000000 1.000000
v -1.000000 1.000000 -1.000000
vn -0.0000 -0.0000 1.0000
vn -0.0250 0.0250 0.9994
vn -1.0000 -0.0000 -0.0000
vn -0.0872 0.4530 -0.8872
vn 0.9677 0.1995 -0.1544
vn -0.2866 -0.0073 -0.9580
vn 0.9908 -0.1282 -0.0433
vn -0.2230 0.1650 -0.9607
vn -0.0000 1.0000 -0.0000
vn 0.9471 0.3208 -0.0000
vn -0.9471 0.3208 -0.0000
vn -0.0000 0.3208 0.9471
vt 0.625000 0.500000
vt 0.375000 0.500000
vt 0.625000 0.750000
vt 0.375000 0.750000
vt 0.625000 0.250000
vt 0.375000 0.250000
vt 0.625000 0.000000
vt 0.625000 1.000000
vt 0.375000 1.000000
vt 0.375000 0.000000
vt 0.625000 0.750000
vt 0.625000 0.000000
vt 0.625000 1.000000
vt 0.625000 0.500000
vt 0.625000 0.250000
vt 0.625000 0.750000
vt 0.875000 0.750000
vt 0.625000 0.000000
vt 0.625000 1.000000
vt 0.625000 0.500000
vt 0.875000 0.500000
vt 0.625000 0.250000
vt 0.375000 0.250000
vt 0.375000 0.000000
vt 0.625000 0.250000
vt 0.625000 0.000000
vt 0.625000 0.750000
vt 0.625000 1.000000
s 0
usemtl Material
f 7/8/1 3/3/1 9/11/1 10/13/1
f 4/4/2 3/3/2 7/8/2 8/9/2
f 8/10/3 7/7/3 5/5/3 6/6/3
f 11/14/4 12/15/4 16/22/4 15/20/4
f 2/2/5 1/1/5 3/3/5 4/4/5
f 6/6/6 5/5/6 1/1/6 2/2/6
f 5/5/3 7/7/3 10/12/3 12/15/3
f 3/3/7 1/1/7 11/14/7 9/11/7
f 1/1/8 5/5/8 12/15/8 11/14/8
f 15/20/9 16/21/9 14/17/9 13/16/9
f 9/11/10 11/14/10 15/20/10 13/16/10
f 12/15/11 10/12/11 14/18/11 16/22/11
f 10/13/12 9/11/12 13/16/12 14/19/12
f 8/10/9 6/6/9 17/23/9 18/24/9
f 7/7/9 5/5/9 19/25/9 20/26/9
f 3/3/9 7/8/9 22/28/9 21/27/9
l 19 23
